<?xml version="1.0" encoding="utf-8"?>
<!-- Svg Vector Icons : http://www.onlinewebfonts.com/icon -->
<!DOCTYPE svg PUBLIC "-//W3C//DTD SVG 1.1//EN" "http://www.w3.org/Graphics/SVG/1.1/DTD/svg11.dtd">
<svg version="1.1" xmlns="http://www.w3.org/2000/svg" xmlns:xlink="http://www.w3.org/1999/xlink" x="0px" y="0px" viewBox="0 0 256 256" enable-background="new 0 0 256 256" xml:space="preserve">
<metadata> Svg Vector Icons : http://www.onlinewebfonts.com/icon </metadata>
<g><g><path fill="#000000" d="M74.3,221.1"/><path fill="#000000" d="M85.2,221.1"/><path fill="#000000" d="M142.2,169.7l30.5-30.5l10.4,10.4c2.5-1.5,5.2-2.7,8-3.7l-17.4-17.4l-1,1l-1-1l-11.4,11.4l-52.5-52.5l-1,1l-1-1l-71.7,71.7l5.8,5.8l66.8-66.8l47.7,47.7l-18.2,18.2L142.2,169.7z M18.4,201.7V37.2h197.6v98.7h8.4V28.8H10v180.8h160.5c-1.9,0-3.5,0-4.8-7.9L18.4,201.7L18.4,201.7z M181.6,58.8h-16.1v16.3h16.1V58.8z M204.8,144.9c-22.7,0-41.2,18.4-41.2,41.2c0,22.7,18.4,41.2,41.2,41.2c22.7,0,41.2-18.4,41.2-41.2C246,163.3,227.6,144.9,204.8,144.9z M171.9,186.1c0-18.2,14.7-32.9,32.9-32.9c8.8,0,16.7,3.5,22.6,9.1l-46.4,46.5C175.4,202.8,171.9,194.8,171.9,186.1z M204.8,219c-6.4,0-12.3-1.9-17.4-5.1l45.2-45.3c3.2,5.1,5.1,11,5.1,17.4C237.8,204.2,223,219,204.8,219z"/></g></g>
</svg>