<svg xmlns="http://www.w3.org/2000/svg" width="24" height="24" viewBox="0 0 24 24">
  <!-- 游戏控制器主体 -->
  <path d="M2 9c0-1.1.9-2 2-2h16c1.1 0 2 .9 2 2v6c0 1.1-.9 2-2 2H4c-1.1 0-2-.9-2-2V9z" fill="#424242" stroke="#212121" stroke-width="1" />
  
  <!-- 控制器手柄 -->
  <path d="M5 17c0 0 0 3 2 3s2-3 2-3" fill="#424242" stroke="#212121" stroke-width="1" />
  <path d="M15 17c0 0 0 3 2 3s2-3 2-3" fill="#424242" stroke="#212121" stroke-width="1" />
  
  <!-- 左侧D-pad -->
  <rect x="5" y="9" width="5" height="5" rx="1" fill="#616161" />
  <path d="M6.5 11.5h2" stroke="#FFFFFF" stroke-width="1.5" stroke-linecap="round" />
  <path d="M7.5 10.5v2" stroke="#FFFFFF" stroke-width="1.5" stroke-linecap="round" />
  
  <!-- 右侧按钮 -->
  <circle cx="16" cy="9.5" r="1.2" fill="#FF5252" />
  <circle cx="18" cy="11.5" r="1.2" fill="#42A5F5" />
  <circle cx="14" cy="11.5" r="1.2" fill="#FFCA28" />
  <circle cx="16" cy="13.5" r="1.2" fill="#66BB6A" />
  
  <!-- 中央装饰 -->
  <rect x="10.5" y="11" width="3" height="1.5" rx="0.75" fill="#9E9E9E" />
  
  <!-- 高光效果 -->
  <line x1="4" y1="8" x2="20" y2="8" stroke="#FFFFFF" stroke-width="0.5" opacity="0.2" />
</svg> 